<svg height="512" viewBox="0 0 192 192" width="512" xmlns="http://www.w3.org/2000/svg"><g id="_18-eye" data-name="18-eye"><g id="Glyph"><path d="m96 0a96 96 0 1 0 96 96 96.108 96.108 0 0 0 -96-96zm35.89 112.576a72.48 72.48 0 0 0 10.766-12.138 8 8 0 0 0 0-8.875 72.42 72.42 0 0 0 -10.766-12.139l29.47-29.469a79.729 79.729 0 0 1 0 92.09zm18.955-74.736-32.14 32.141a46.087 46.087 0 0 0 -45.41 0l-32.141-32.141a79.785 79.785 0 0 1 109.691 0zm-38.845 58.16a16 16 0 1 1 -16-16 16 16 0 0 1 16 16zm-81.36-46.046 29.47 29.47a72.377 72.377 0 0 0 -10.766 12.139 8 8 0 0 0 0 8.875 72.436 72.436 0 0 0 10.766 12.138l-29.47 29.47a79.732 79.732 0 0 1 0-92.092zm10.514 104.206 32.146-32.141a46.087 46.087 0 0 0 45.41 0l32.14 32.141a79.785 79.785 0 0 1 -109.691 0z"/><circle cx="96" cy="40" r="8"/><circle cx="160" cy="96" r="8"/><circle cx="96" cy="152" r="8"/><circle cx="32" cy="96" r="8"/></g></g></svg>