<?xml version="1.0" encoding="iso-8859-1"?>
<!-- Generator: Adobe Illustrator 19.0.0, SVG Export Plug-In . SVG Version: 6.00 Build 0)  -->
<svg version="1.1" id="Capa_1" xmlns="http://www.w3.org/2000/svg" xmlns:xlink="http://www.w3.org/1999/xlink" x="0px" y="0px"
	 viewBox="0 0 512 512" style="enable-background:new 0 0 512 512;" xml:space="preserve">
<g>
	<g>
		<path d="M499.459,85.626L418.232,4.399c-2.813-2.813-6.627-4.394-10.605-4.394L314.75,0c-3.979,0-7.794,1.58-10.607,4.394
			c-2.813,2.813-4.394,6.628-4.394,10.606v27.789c-13.312,7.478-28.289,11.398-43.75,11.398c-15.459,0-30.436-3.921-43.748-11.398
			V15c0-3.979-1.581-7.794-4.394-10.606C205.044,1.58,201.229,0,197.251,0l-92.877,0.006c-3.978,0-7.793,1.58-10.605,4.394
			L12.541,85.626c-16.693,16.693-16.692,43.855,0.001,60.549c6.376,6.377,16.855,11.417,74.285,3.136
			c5.099-0.734,10.136-1.513,14.964-2.294l-40.609,51.517c-2.18,2.766-3.317,6.21-3.213,9.729
			c0.149,5.038,3.37,104.182,26.975,217.514h342.114c23.605-113.332,26.826-212.476,26.975-217.514
			c0.104-3.52-1.034-6.964-3.213-9.729l-40.609-51.517c4.829,0.781,9.866,1.56,14.965,2.294c57.429,8.28,67.908,3.241,74.285-3.136
			C516.152,129.481,516.152,102.319,499.459,85.626z M313.882,250.042H271v113.439c0,8.284-6.716,15-15,15s-15-6.716-15-15V250.042
			h-42.881c-8.284,0-15-6.716-15-15s6.716-15,15-15H241v-50.464c0-8.284,6.716-15,15-15s15,6.716,15,15v50.464h42.882
			c8.284,0,15,6.716,15,15S322.166,250.042,313.882,250.042z"/>
	</g>
</g>
<g>
	<g>
		<path d="M91.612,455.776c3.57,15.062,7.511,30.246,11.868,45.375c1.85,6.424,7.729,10.849,14.414,10.849h276.211
			c6.686,0,12.564-4.425,14.414-10.849c4.357-15.129,8.299-30.313,11.868-45.375H91.612z"/>
	</g>
</g>
<g>
</g>
<g>
</g>
<g>
</g>
<g>
</g>
<g>
</g>
<g>
</g>
<g>
</g>
<g>
</g>
<g>
</g>
<g>
</g>
<g>
</g>
<g>
</g>
<g>
</g>
<g>
</g>
<g>
</g>
</svg>
