<svg id="Capa_1" enable-background="new 0 0 511.978 511.978" height="512" viewBox="0 0 511.978 511.978" width="512" xmlns="http://www.w3.org/2000/svg"><g><path d="m74.795 287.186c12.012 12.026 16.934 29.751 12.832 46.26-6.313 25.4 1.26 52.676 19.746 71.162s45.732 26.001 71.147 19.746c16.582-4.131 34.263.82 46.274 12.832l21.211-21.211-150-150z"/><path d="m76.809 498.805 48.717-48.726c-14.685-5.191-28.31-13.206-39.364-24.26-11.166-11.16-19.29-24.672-24.435-39.207l-48.565 48.574c-17.549 17.549-17.549 46.084 0 63.633 17.548 17.55 46.096 17.537 63.647-.014z"/><path d="m296.286 31.005h84.853v29.997h-84.853z" transform="matrix(.707 -.707 .707 .707 66.677 252.98)"/><path d="m158.245 3.577h29.997v84.853h-29.997z" transform="matrix(.707 -.707 .707 .707 18.213 135.976)"/><path d="m240.978.003h30v91h-30z"/><path d="m287.183 437.186c12.012-12.012 29.692-16.963 46.274-12.832 25.415 6.255 52.661-1.26 71.147-19.746s26.06-45.762 19.746-71.162c-4.102-16.509.82-34.233 12.832-46.26l-21.211-21.211-150 150z"/><path d="m450.251 386.612c-5.145 14.535-13.27 28.046-24.435 39.207-11.054 11.054-24.679 19.069-39.364 24.26l48.717 48.726c17.551 17.551 46.099 17.563 63.647.015 17.549-17.549 17.549-46.084 0-63.633z"/><path d="m192.356 234.781 42.422-42.422-162.349-162.356c-19.072-19.072-45.469-30-72.422-30 0 26.953 10.928 53.35 30 72.422z"/><path d="m279.087 293.994h59.994v30.194h-59.994z" transform="matrix(.707 -.707 .707 .707 -128.032 309.086)"/><path d="m171.002 298.557 42.422 42.422 268.554-268.554c19.072-19.072 30-45.469 30-72.422-26.953 0-53.35 10.928-72.422 30z"/></g></svg>