<svg id="Layer_1" enable-background="new 0 0 504.339 504.339" height="512" viewBox="0 0 504.339 504.339" width="512" xmlns="http://www.w3.org/2000/svg"><path d="m477.592 99.75-231.728-98.453c-11.681-4.962-24.263 5.048-22.001 17.569 7.143 39.552-6.2 73.937-40.765 104.862l-30.345-12.893c-8.131-3.459-17.527.336-20.982 8.469s.336 17.527 8.47 20.982c43.132 18.325 268.114 113.912 310.628 131.975 8.079 3.435 17.505-.284 20.982-8.469 3.456-8.133-.336-17.527-8.469-20.982l-30.575-12.99c-2.335-42.309 13.511-75.962 48.272-102.654 9.706-7.452 7.771-22.633-3.487-27.416z"/><path d="m209.793 335.937c-2.285-18.637-42.522-51.574-80.199-78.636-59.041 62.23-96.906 137.85-112.339 228.33-2.422 14.206 13.751 24.014 25.236 15.592 49.889-36.594 95.638-63.465 137.884-80.924-15.015-49.841 31.468-67.63 29.418-84.362z"/><path d="m167.77 186.209c-.95 2.266.363-1.224-17.19 46.754 61.176 44.063 87.81 73.258 90.975 99.08 2.46 20.063-9.159 33.375-18.495 44.073-9.731 11.149-16.307 18.694-12.586 33.151 27.181-8.64 55.252-13.875 83.655-13.386 31.276.596 59.269-20.851 66.891-51.812l16.882-68.583zm53.998 78.879c-9.762 0-17.675-7.914-17.675-17.675s7.913-17.675 17.675-17.675 17.675 7.914 17.675 17.675c0 9.762-7.913 17.675-17.675 17.675z"/></svg>