<svg height="464pt" viewBox="0 0 464 464" width="464pt" xmlns="http://www.w3.org/2000/svg"><path d="m240 322v-10.007812h-32v-64h32v-48h71.855469c10.65625 0 20.152343-7.160157 23.082031-17.417969l24.328125-85.152344c.488281-1.695313.734375-3.453125.734375-5.199219v-1.269531c0-10.457031-8.503906-18.953125-18.953125-18.953125-8.710937 0-16.269531 5.902344-18.390625 14.351562l-17.382812 69.519532c-1.785157 7.144531-8.167969 12.128906-15.519532 12.128906h-73.753906v-20.160156l3.398438-2.390625c23.699218-16.648438 46.371093-50.609375 32.273437-91.53125-9.871094-28.664063-35.542969-49.574219-65.398437-53.277344-23.351563-2.871094-45.792969 3.984375-63.21875 19.382813-17.199219 15.191406-27.054688 37.046874-27.054688 59.96875 0 24.878906 13.679688 49.351562 36.601562 65.457031l3.398438 2.390625v20.160156h-45.800781c-13.671875 0-26.246094 6.863281-33.648438 18.375l-53.894531 83.839844c-1.734375 2.703125-2.65625 5.824218-2.65625 9.050781 0 9.222656 7.503906 16.734375 16.734375 16.734375h1.691406c5.75 0 11.03125-2.894531 14.117188-7.753906l42.625-66.972656c5.28125-8.3125 14.320312-13.273438 24.175781-13.273438 15.808594 0 28.65625 12.847656 28.65625 28.65625v28.023438c0 16.703124-4.542969 33.113281-13.144531 47.441406-7.09375 11.832031-10.855469 25.390625-10.855469 39.191406v94.792969c0 9.863281 8.023438 17.886719 17.886719 17.886719h4.21875c9.863281 0 17.886719-8.023438 17.886719-17.886719v-78.113281c0-13.230469 10.769531-24 24-24h29.816406c9.28125 0 17.816406 5.441406 21.75 13.839843l44.722656 95.832031c2.917969 6.265626 9.277344 10.320313 16.199219 10.320313h5.625c9.863281 0 17.886719-8.023437 17.886719-17.886719 0-2.761718-.65625-5.53125-1.886719-8zm-52.441406 12.648438-12.453125-8.304688c-9.457031-6.304688-15.105469-16.855469-15.105469-28.222656v-7.386719c0-4.71875-1.910156-9.34375-5.246094-12.679687l-.816406-.816407c-6.3125-6.308593-9.9375-15.054687-9.9375-23.984375 0-16.109375 11.472656-30.101562 27.273438-33.269531l19.160156-3.832031 3.140625 15.6875-19.160157 3.832031c-8.351562 1.664063-14.414062 9.0625-14.414062 17.582031 0 4.722656 1.910156 9.347656 5.246094 12.683594l.816406.8125c6.3125 6.304688 9.9375 15.058594 9.9375 23.984375v7.386719c0 6.007812 2.984375 11.582031 7.984375 14.910156l12.457031 8.304688zm0 0"/><path d="m224 263.992188h144v32h-144zm0 0"/><path d="m464 279.992188c0-8.839844-7.160156-16-16-16h-32v32h32c8.839844 0 16-7.160157 16-16zm0 0"/><path d="m384 247.992188h16v64h-16zm0 0"/><path d="m24 367.992188c0 13.230468 10.769531 24 24 24h16c4.414062 0 8 3.582031 8 8 0 4.414062-3.585938 8-8 8h-40c-13.230469 0-24 10.769531-24 24 0 13.230468 10.769531 24 24 24h64v-16h-64c-4.414062 0-8-3.585938-8-8 0-4.417969 3.585938-8 8-8h40c13.230469 0 24-10.769532 24-24 0-13.230469-10.769531-24-24-24h-16c-4.414062 0-8-3.585938-8-8 0-4.417969 3.585938-8 8-8h40v-16h-40c-13.230469 0-24 10.769531-24 24zm0 0"/><path d="m440 407.992188h-64c-4.414062 0-8-3.585938-8-8 0-4.417969 3.585938-8 8-8h32c13.230469 0 24-10.769532 24-24 0-13.230469-10.769531-24-24-24h-64c-4.414062 0-8-3.585938-8-8v-8h-16v8c0 13.230468 10.769531 24 24 24h64c4.414062 0 8 3.582031 8 8 0 4.414062-3.585938 8-8 8h-32c-13.230469 0-24 10.769531-24 24 0 13.230468 10.769531 24 24 24h64c4.414062 0 8 3.582031 8 8 0 4.414062-3.585938 8-8 8h-104v16h104c13.230469 0 24-10.769532 24-24 0-13.230469-10.769531-24-24-24zm0 0"/></svg>