<svg height="512pt" viewBox="-17 0 512 512" width="512pt" xmlns="http://www.w3.org/2000/svg"><path d="m111.839844 127.363281 256-64-10.347656-41.390625-53.738282 13.433594c-15.515625-21.417969-40.679687-35.40625-69.085937-35.40625-43.144531 0-78.890625 32.191406-84.535157 73.8125l-48.640624 12.15625zm0 0"/><path d="m386.859375 226.632812 90.394531-36.15625-15.84375-39.613281-82.734375 33.089844-1.441406-7.503906c-2.183594-11.394531-13.558594-19.140625-24.96875-16.933594l-96.269531 18.464844v-10.035157c32.917968-8.511718 58.195312-36.210937 63.117187-70.410156l-153.183593 38.292969c11.484374 15.589844 28.136718 27.132813 47.402343 32.117187v18.21875l-112.484375 21.570313c-11.402344 2.1875-19.121094 13.550781-16.933594 24.96875l4.46875 23.296875h-88.382812v42.667969h96.566406l3.421875 17.839843c2.21875 11.570313 13.394531 19.152344 24.96875 16.933594l41.902344-8.039062 20.089844 104.761718c2.1875 11.386719 13.550781 19.136719 24.972656 16.933594l22.746094-4.363281v69.265625h42.664062v-77.449219l60.296875-11.5625c11.402344-2.1875 19.125-13.554687 16.933594-24.96875l-20.089844-104.757812 41.902344-8.039063c11.570312-2.21875 19.152344-13.394531 16.933594-24.964844zm0 0"/></svg>