<?xml version="1.0" encoding="iso-8859-1"?>
<!-- Generator: Adobe Illustrator 19.0.0, SVG Export Plug-In . SVG Version: 6.00 Build 0)  -->
<svg version="1.1" id="Capa_1" xmlns="http://www.w3.org/2000/svg" xmlns:xlink="http://www.w3.org/1999/xlink" x="0px" y="0px"
	 viewBox="0 0 512 512" style="enable-background:new 0 0 512 512;" xml:space="preserve">
<g>
	<g>
		<polygon points="91,60 91,90 391,90 391,451 421,451 421,60 		"/>
	</g>
</g>
<g>
	<g>
		<polygon points="151,0 151,30 451,30 451,391 481,391 481,0 		"/>
	</g>
</g>
<g>
	<g>
		<path d="M232.591,277.416c-9.897-9.329-25.829-22.511-36.592-31.655c-18.539,15.751-59.429,45.536-59.429,68.848
			c0.001,12.612,7.633,25.385,22.223,25.385c15.293,0,21.621-17.651,22.734-21.182l3.281-10.43l22.119-0.41l3.53,10.767
			c0.718,2.271,7.075,21.255,22.749,21.255c14.59,0,22.222-12.773,22.222-25.386C255.428,303.358,249.027,292.928,232.591,277.416z"
			/>
	</g>
</g>
<g>
	<g>
		<path d="M31,120v392h330V120H31z M91,181h30v30H91V181z M241,391v30c-35.015,0-60,0-90,0v-30h30v-26.497
			c-6.442,3.375-13.801,5.491-22.207,5.491c-29.282,0-52.222-24.331-52.222-55.386c0-32.607,25.357-54.008,60.454-83.628
			c13.883-11.721,15-12.729,28.975-24.829c14.227,12.319,15.046,13.068,29.004,24.858c10.664,8.994,20.142,17.021,28.169,24.58
			c16.758,15.82,32.256,33.911,32.256,59.019c0,31.055-22.939,55.386-52.222,55.386c-8.41,0-15.769-2.106-22.207-5.462V391H241z
			 M301,451h-30v-30h30V451z"/>
	</g>
</g>
<g>
</g>
<g>
</g>
<g>
</g>
<g>
</g>
<g>
</g>
<g>
</g>
<g>
</g>
<g>
</g>
<g>
</g>
<g>
</g>
<g>
</g>
<g>
</g>
<g>
</g>
<g>
</g>
<g>
</g>
</svg>
