<svg height="480pt" viewBox="-12 0 480 480.008" width="480pt" xmlns="http://www.w3.org/2000/svg"><path d="m68.957031 356.953125c-13.417969-13.417969-20.953125-31.609375-20.953125-50.578125 0-21.726562 9.878906-42.269531 26.839844-55.847656 6.746094-5.398438 6.746094-15.65625 0-21.054688-16.960938-13.570312-26.839844-34.121094-26.839844-55.847656 0-18.96875 7.535156-37.160156 20.953125-50.578125l6.589844-6.589844c28.464844-28.457031 44.457031-67.074219 44.457031-107.335937 0-5.042969-4.078125-9.121094-9.121094-9.121094-4.070312 0-7.648437 2.695312-8.765624 6.617188-9.183594 32.152343-27.976563 60.734374-53.863282 81.910156l-15.210937 12.441406c-20.910157 17.109375-33.03906275 42.703125-33.03906275 69.71875 0 23.886719 9.48828175 46.800781 26.38281275 63.695312l5.617187 5.617188-5.617187 5.617188c-16.894531 16.894531-26.38281275 39.808593-26.38281275 63.695312 0 27.015625 12.12890575 52.609375 33.03906275 69.71875l15.210937 12.449219c25.878906 21.175781 44.671875 49.75 53.863282 81.910156 1.117187 3.914063 4.695312 6.617187 8.765624 6.617187 5.042969 0 9.121094-4.078124 9.121094-9.121093 0-40.261719-15.992187-78.871094-44.464844-107.34375zm0 0"/><path d="m152.003906 16c0-8.839844-7.160156-16-16-16s-16 7.160156-16 16c0 5.902344 3.238282 11.007812 8 13.785156v420.4375c-4.761718 2.769532-8 7.875-8 13.785156 0 8.839844 7.160156 16 16 16s16-7.160156 16-16c0-5.902343-3.238281-11.007812-8-13.785156v-420.4375c4.761719-2.777344 8-7.875 8-13.785156zm0 0"/><path d="m414.53125 153.703125-6.527344-5.4375v-12.265625h-15.160156l7.121094-71.199219-.6875-.074219 16.726562-16.726562v-40h-8l-16 16-16-16h-8v40l15.960938 15.960938-7.199219 72.039062h-48.761719v-72l16-16v-40h-8l-16 16-16-16h-8v40l16 16v72h-48.761718l-7.199219-72.039062 15.960937-15.960938v-40h-8l-16 16-16-16h-8v40l16.726563 16.726562-.6875.074219 7.121093 71.199219h-15.160156v32h174.449219c21.304687 18.839844 33.550781 45.6875 33.550781 74.238281 0 26.914063-11.152344 53.035157-30.582031 71.65625l-149.113281 142.898438c-4.839844 4.648437-11.214844 7.207031-17.945313 7.207031h-1.0625c-13.945312 0-25.296875-11.351562-25.296875-25.839844 0-6.992187 2.695313-13.535156 7.59375-18.441406l24.40625-24.40625v50.726562c.398438-.285156.863282-.445312 1.222656-.800781l142.777344-136.824219v-61.886718c-2.511718.898437-5.183594 1.472656-8 1.472656-6.144531 0-11.75-2.320312-16-6.128906-4.246094 3.808594-9.855468 6.128906-16 6.128906-6.144531 0-11.75-2.320312-16-6.128906-4.246094 3.808594-9.855468 6.128906-16 6.128906-6.144531 0-11.75-2.320312-16-6.128906-4.246094 3.808594-9.855468 6.128906-16 6.128906-6.144531 0-11.75-2.320312-16-6.128906-4.246094 3.808594-9.855468 6.128906-16 6.128906-2.816406 0-5.488281-.574219-8-1.472656v126.160156l-35.71875 35.71875c-7.921875 7.921875-12.28125 18.488281-12.28125 30.28125 0 22.785156 18.519532 41.3125 41.296875 41.3125h1.0625c10.871094 0 21.175781-4.144531 29.023438-11.664062l149.105469-142.894532c22.566406-21.625 35.511718-51.945312 35.511718-83.203125 0-34.300781-15.121094-66.582031-41.472656-88.535156zm0 0"/><path d="m352.003906 232c4.417969 0 8-3.585938 8-8v-8h-16v8c0 4.414062 3.585938 8 8 8zm0 0"/><path d="m320.003906 232c4.417969 0 8-3.585938 8-8v-8h-16v8c0 4.414062 3.585938 8 8 8zm0 0"/><path d="m248.003906 184h144v16h-144zm0 0"/><path d="m384.003906 232c4.417969 0 8-3.585938 8-8v-8h-16v8c0 4.414062 3.585938 8 8 8zm0 0"/><path d="m288.003906 232c4.417969 0 8-3.585938 8-8v-8h-16v8c0 4.414062 3.585938 8 8 8zm0 0"/><path d="m384.003906 472c4.417969 0 8-3.585938 8-8v-89.097656l-101.3125 97.097656zm0 0"/><path d="m248.003906 224c0 4.414062 3.585938 8 8 8 4.417969 0 8-3.585938 8-8v-8h-16zm0 0"/></svg>