<?xml version="1.0" encoding="iso-8859-1"?>
<!-- Generator: Adobe Illustrator 19.0.0, SVG Export Plug-In . SVG Version: 6.00 Build 0)  -->
<svg version="1.1" id="Capa_1" xmlns="http://www.w3.org/2000/svg" xmlns:xlink="http://www.w3.org/1999/xlink" x="0px" y="0px"
	 viewBox="0 0 512 512" style="enable-background:new 0 0 512 512;" xml:space="preserve">
<g>
	<g>
		<path d="M205.605,245.394l-180-179.999c-4.277-4.292-10.693-5.552-16.348-3.252C3.647,64.457,0,69.936,0,76v360
			c0,6.064,3.647,11.543,9.258,13.857C11.118,450.634,13.066,451,15,451c3.896,0,7.734-1.523,10.605-4.395l180-180
			C211.464,260.746,211.464,251.253,205.605,245.394z M30,399.789V112.211L173.789,256L30,399.789z"/>
	</g>
</g>
<g>
	<g>
		<path d="M502.742,62.143c-5.625-2.329-12.041-1.04-16.348,3.252l-180,180c-5.859,5.859-5.859,15.352,0,21.211l180,180
			c2.872,2.871,6.71,4.394,10.606,4.394c1.934,0,3.882-0.366,5.742-1.143c5.61-2.314,9.258-7.793,9.258-13.857V76
			C512,69.936,508.353,64.457,502.742,62.143z"/>
	</g>
</g>
<g>
	<g>
		<path d="M257,391c-8.291,0-15,6.709-15,15v60c0,8.291,6.709,15,15,15s15-6.709,15-15v-60C272,397.709,265.291,391,257,391z"/>
	</g>
</g>
<g>
	<g>
		<path d="M257,271c-8.291,0-15,6.709-15,15v60c0,8.291,6.709,15,15,15s15-6.709,15-15v-60C272,277.709,265.291,271,257,271z"/>
	</g>
</g>
<g>
	<g>
		<path d="M257,151c-8.291,0-15,6.709-15,15v60c0,8.291,6.709,15,15,15s15-6.709,15-15v-60C272,157.709,265.291,151,257,151z"/>
	</g>
</g>
<g>
	<g>
		<path d="M257,31c-8.291,0-15,6.709-15,15v60c0,8.291,6.709,15,15,15s15-6.709,15-15V46C272,37.709,265.291,31,257,31z"/>
	</g>
</g>
<g>
</g>
<g>
</g>
<g>
</g>
<g>
</g>
<g>
</g>
<g>
</g>
<g>
</g>
<g>
</g>
<g>
</g>
<g>
</g>
<g>
</g>
<g>
</g>
<g>
</g>
<g>
</g>
<g>
</g>
</svg>
