<svg height="512" viewBox="0 0 56 56" width="512" xmlns="http://www.w3.org/2000/svg">
<g id="Page-1">
<g id="041---Rekt">
<path id="Shape" d="m10 43c.7049876.0027564 1.3960867.1962641 2 .56v-11.12c-.6039133.3637359-1.2950124.5572436-2 .56z"/><circle id="Oval" cx="10" cy="29" r="2"/><circle id="Oval" cx="10" cy="47" r="2"/><path id="Shape" d="m51.36 33.52-1.74 3.48h6.38z"/><path id="Shape" d="m8 37h-6v-2c0-.5522847-.44771525-1-1-1s-1 .4477153-1 1v6c0 .5522847.44771525 1 1 1s1-.4477153 1-1v-2h6z"/><path id="Shape" d="m42 37h5.38l1.96-3.91-9.97.52c-.241456.4524598-.368486.9571466-.37 1.47v1.99c-.019707 1.0850754-.9149111 1.9489473-2 1.93h-14c-1.0850889.0189473-1.980293-.8449246-2-1.93v-1.99c-.0029846-.1673333-.0163435-.3343205-.04-.5l-6.96.37v2.05h4c.5522847 0 1 .4477153 1 1s-.4477153 1-1 1h-4v2.05l35.34 1.86-1.96-3.91h-5.38c-.5522847 0-1-.4477153-1-1s.4477153-1 1-1z"/><circle id="Oval" cx="37" cy="20" r="3"/><circle id="Oval" cx="23" cy="20" r="3"/><path id="Shape" d="m21 50c0 .5522847.4477153 1 1 1 .2605125.0044841.5109097-.1007553.69-.29.1996295-.1817916.3123728-.4400102.31-.71v-1c.0049422-1.6548028 1.3451972-2.9950578 3-3 1.6568542 0 3 1.3431458 3 3v6c0 .5522847.4477153 1 1 1 .2605125.0044841.5109097-.1007553.69-.29.1996295-.1817916.3123728-.4400102.31-.71v-3c.0049422-1.6548028 1.3451972-2.9950578 3-3 1.6568542 0 3 1.3431458 3 3v1c0 .5522847.4477153 1 1 1 .2605125.0044841.5109097-.1007553.69-.29.1996295-.1817916.3123728-.4400102.31-.71v-8.63l-18-.95z"/><path id="Shape" d="m17.06 25.78c-.0408006.3384566-.0608381.679094-.06 1.02-.0558257 1.4356471.8713851 2.7255003 2.25 3.13 2.1926732.7787522 3.6820292 2.8241344 3.75 5.15v1.99l2-.01v-3.06c0-.5522847.4477153-1 1-1s1 .4477153 1 1v3.05l2-.01v-3.04c0-.5522847.4477153-1 1-1s1 .4477153 1 1v3.03l2-.01v-3.02c0-.5522847.4477153-1 1-1s1 .4477153 1 1v3.01l2-.01v-1.92c.0679708-2.3258656 1.5573268-4.3712478 3.75-5.15 1.3786149-.4044997 2.3058257-1.6943529 2.25-3.13.0008381-.340906-.0191994-.6815434-.06-1.02-.242621-2.4356322.447045-4.8726906 1.93-6.82 1.4318393-2.0421107 2.177729-4.4863878 2.13-6.98 0-11.64-15.26-11.98-17-11.98s-17 .34-17 11.98c-.047729 2.4936122.6981607 4.9378893 2.13 6.98 1.482955 1.9473094 2.172621 4.3843678 1.93 6.82zm15.49 4.05c-.1610128.1128533-.3533896.1723152-.55.17-.3345191-.0017306-.6460165-.1706148-.83-.45l-1.17-1.75-1.17 1.75c-.1793781.3344065-.5325821.5384678-.9118826.5268341-.3793006-.0116337-.7193347-.2369575-.8778815-.5817287-.1585468-.3447711-.1082846-.749577.1297641-1.0451054l2-3c.1940749-.2641046.5022557-.420082.83-.420082s.6359251.1559774.83.420082l2 3c.1479408.2195111.201608.4892075.1489712.7486318-.0526369.2594243-.2071747.4868762-.4289712.6313682zm4.45-14.83c2.7614237 0 5 2.2385763 5 5s-2.2385763 5-5 5-5-2.2385763-5-5 2.2385763-5 5-5zm-9.1-12.89c1-.1 1.74-.11 2.1-.11.5522847 0 1 .44771525 1 1s-.4477153 1-1 1c-.26 0-.96.01-1.9.1-.04 0-.07.01-.1.01-.5162586-.00486222-.9466145-.39648601-1-.91-.0521958-.54944011.3506097-1.0372823.9-1.09zm.1 17.89c0 2.7614237-2.2385763 5-5 5s-5-2.2385763-5-5 2.2385763-5 5-5 5 2.2385763 5 5zm-4.27-17.12c.5299985-.14749051 1.0795967.16082067 1.23.69.1491807.53263985-.1587349 1.08599531-.69 1.24-4.82 1.36-7.27 4.12-7.27 8.19 0 .5522847-.4477153 1-1 1s-1-.4477153-1-1c0-5 3.02-8.5 8.73-10.12z"/>
<path id="Shape" d="m51.36 42.48 4.64-3.48h-6.38z"/></g></g></svg>